<?xml version="1.0" encoding="iso-8859-1"?>
<!-- Uploaded to: SVG Repo, www.svgrepo.com, Generator: SVG Repo Mixer Tools -->
<svg fill="#a350e9" width="59.09" height="56.087" version="1.1" id="Layer_1" xmlns="http://www.w3.org/2000/svg" xmlns:xlink="http://www.w3.org/1999/xlink" 
	 viewBox="0 0 512 512" xml:space="preserve">

<g>
	<g>
		<ellipse cx="68.256" cy="125.044" rx="13.184" ry="13.168"/>
	</g>
</g>
<g>
	<g>
		<ellipse cx="103.208" cy="125.044" rx="13.184" ry="13.168"/>
	</g>
</g>
<g>
	<g>
		<ellipse cx="138.16" cy="125.044" rx="13.184" ry="13.168"/>
	</g>
</g>
<g>
	<g>
		<polygon points="202.024,104.332 174.216,146.908 456.928,146.908 456.928,104.332 		"/>
	</g>
</g>
<g>
	<g>
		<path d="M488,49.332H24c-13.2,0-24,10.8-24,24v365.336c0,13.2,10.8,24,24,24h464c13.2,0,24-10.8,24-24V73.332
			C512,60.132,501.2,49.332,488,49.332z M480,421.916L457.856,405.1h-63.632l33.544,25.568h-27.704L366.4,405.092H145.592
			l-33.664,25.568H84.224l33.544-25.568H54.144L32,421.908V81.332h448V421.916z"/>
	</g>
</g>
<g>
	<g>
		<polygon points="214.088,212.924 103.384,260.836 103.384,287.492 214.088,335.636 214.088,304.46 136.872,273.836 
			214.088,244.316 		"/>
	</g>
</g>
<g>
	<g>
		<polygon points="264.32,189.788 224.336,356.78 247.136,356.78 287.56,189.788 		"/>
	</g>
</g>
<g>
	<g>
		<polygon points="297.808,213.148 297.808,244.1 375.128,274.172 297.808,304.572 297.808,335.748 408.616,287.492 
			408.616,261.068 		"/>
	</g>
</g>
</svg>